<svg width="68" height="50" viewBox="0 0 68 50" fill="none" xmlns="http://www.w3.org/2000/svg">
<path opacity="0.4" d="M33.9644 39.9552C39.0631 39.9552 43.1965 35.8219 43.1965 30.7232C43.1965 25.6245 39.0631 21.4912 33.9644 21.4912C28.8657 21.4912 24.7324 25.6245 24.7324 30.7232C24.7324 35.8219 28.8657 39.9552 33.9644 39.9552Z" fill="url(#paint0_linear_133_1438)"/>
<path d="M33.9651 49.6486C23.4252 49.6486 12.7315 45.4942 2.26852 37.4161C1.42226 36.8007 0.960656 35.8775 0.806789 34.8773C0.652922 33.8772 0.960656 32.8771 1.57612 32.1077C12.1929 18.7213 23.0406 11.9512 33.8882 11.9512C44.7358 11.9512 55.5834 18.7213 66.2002 32.1077C66.8157 32.8771 67.1234 33.8772 66.9696 34.8773C66.8157 35.8775 66.3541 36.8007 65.5078 37.4161C55.1218 45.4942 44.505 49.6486 33.9651 49.6486ZM33.9651 14.0284C23.8868 14.0284 13.5777 20.5677 3.42253 33.4156C3.19173 33.7233 3.03786 34.108 3.11479 34.5696C3.11479 34.8004 3.26866 35.262 3.73026 35.6467C13.8085 43.4939 23.9638 47.4175 33.9651 47.4175C43.9665 47.4175 54.1217 43.4939 64.2769 35.6467C64.5846 35.4159 64.8154 35.0312 64.8924 34.5696C64.9693 34.1849 64.8154 33.8003 64.5846 33.4156C54.3525 20.5677 44.0434 14.0284 33.9651 14.0284Z" fill="#042326"/>
<path d="M33.9661 41.1099C28.273 41.1099 23.5801 36.417 23.5801 30.7239C23.5801 25.0308 28.273 20.3379 33.9661 20.3379C39.6592 20.3379 44.3521 25.0308 44.3521 30.7239C44.3521 36.417 39.6592 41.1099 33.9661 41.1099ZM33.9661 22.569C29.504 22.569 25.8111 26.1848 25.8111 30.7239C25.8111 35.186 29.427 38.8789 33.9661 38.8789C38.5052 38.8789 42.121 35.263 42.121 30.7239C42.0441 26.2618 38.4282 22.569 33.9661 22.569Z" fill="#042326"/>
<path d="M35.0416 0.411133H32.8105V5.56567H35.0416V0.411133Z" fill="#042326"/>
<path d="M13.4887 5.6995L11.7422 7.08789L15.0456 11.2433L16.7921 9.85491L13.4887 5.6995Z" fill="#042326"/>
<path d="M54.4549 5.62396L51.1504 9.77832L52.8964 11.1672L56.2009 7.0128L54.4549 5.62396Z" fill="#042326"/>
<path d="M1.67203 17.0269L0.316406 18.7988L3.79918 21.4632L5.1548 19.6913L1.67203 17.0269Z" fill="#042326"/>
<path d="M66.2166 17.069L62.7344 19.7344L64.0904 21.5061L67.5727 18.8407L66.2166 17.069Z" fill="#042326"/>
<defs>
<linearGradient id="paint0_linear_133_1438" x1="24.6987" y1="30.7251" x2="43.2074" y2="30.7251" gradientUnits="userSpaceOnUse">
<stop stop-color="#04A6C2" stop-opacity="0.01"/>
<stop offset="0.533" stop-color="#04A6C2" stop-opacity="0.68"/>
<stop offset="0.8307" stop-color="#04A6C2" stop-opacity="0.88"/>
<stop offset="1" stop-color="#04A6C2"/>
</linearGradient>
</defs>
</svg>
