<svg width="55" height="55" viewBox="0 0 55 55" fill="none" xmlns="http://www.w3.org/2000/svg">
<path opacity="0.4" d="M27 54.3957C27 54.3957 27.0825 45.3187 27.2476 43.5034C27.4951 41.1929 28.7329 39.625 30.4657 38.8824C33.4364 37.5621 36.9846 39.1299 38.8 42.5132C39.6252 43.9985 39.7902 45.5663 39.3776 47.2167C39.2126 48.0418 38.965 48.867 38.635 49.5271C37.8923 51.095 37.5622 54.3957 37.5622 54.3957H27Z" fill="url(#paint0_linear_133_1452)"/>
<path opacity="0.4" d="M13.3855 1.58496L25.433 14.0451C26.5057 15.1178 28.1561 15.3654 29.5589 14.7878C30.7141 14.3752 32.1169 14.2927 33.5197 14.7878C35.2526 15.3654 36.5729 16.8507 37.068 18.5836C38.0582 22.3794 35.2526 25.8451 31.5393 25.8451C31.0442 25.8451 30.6316 25.7626 30.219 25.6801C30.3015 26.0101 30.3841 26.3402 30.3841 26.6703C30.4666 29.1458 28.9813 31.6213 26.5883 32.364C22.6274 33.6843 18.9966 30.7136 18.9966 27.0003C18.9966 26.3402 19.0792 25.7626 19.3267 25.185C19.8218 23.6171 19.6568 21.8843 18.419 20.729L1.99805 3.89545L13.3855 1.58496Z" fill="url(#paint1_linear_133_1452)"/>
<path opacity="0.4" d="M45.4027 35.9942C44.5775 37.727 42.6796 37.727 41.6894 36.0767C40.3691 33.8487 40.3691 30.3005 41.6894 28.155C42.6796 26.5872 44.495 26.5872 45.4027 28.2375C46.888 30.9606 46.558 33.5187 45.4027 35.9942Z" fill="url(#paint2_linear_133_1452)"/>
<path d="M35.9934 54.148L36.241 52.9928C36.3235 52.6627 36.6535 51.0124 37.4787 49.362C37.7263 48.7844 37.9738 48.1242 38.1389 47.2165C38.4689 45.7312 38.3039 44.411 37.7263 43.1732C36.571 41.0277 34.5906 39.6249 32.6927 39.6249C32.1151 39.6249 31.5375 39.79 30.9598 39.955C29.4745 40.6151 28.6493 41.9354 28.4843 43.7508C28.3193 45.3186 28.2368 51.0949 28.2368 53.1578V54.3956H25.8438V53.1578C25.8438 51.8375 25.9263 45.3186 26.0913 43.5033C26.3389 40.7802 27.7417 38.7998 29.9696 37.727C30.7948 37.3144 31.7025 37.1494 32.6927 37.1494C35.5808 37.1494 38.3039 39.0473 39.8717 42.0179C40.7794 43.7508 41.027 45.6487 40.5319 47.7117C40.2843 48.7844 40.0368 49.6096 39.7067 50.3522C39.0465 51.755 38.7165 53.3228 38.7165 53.4879L38.3864 54.6431L35.9934 54.148Z" fill="#042326"/>
<path d="M43.5034 38.4704C42.3482 38.4704 41.2755 37.8102 40.6153 36.655C39.0475 34.097 39.0475 30.0536 40.6153 27.4956C41.2755 26.4228 42.3482 25.7627 43.4209 25.7627H43.586C44.7412 25.7627 45.8139 26.5054 46.3916 27.5781C47.8769 30.3837 47.9594 33.2718 46.3916 36.4075C45.8139 37.5627 44.8237 38.3054 43.6685 38.3879C43.6685 38.4704 43.586 38.4704 43.5034 38.4704C43.586 38.4704 43.5034 38.4704 43.5034 38.4704ZM43.5034 28.1557C43.1734 28.1557 42.9258 28.4033 42.6783 28.7333C41.6055 30.5487 41.6055 33.6019 42.6783 35.4172C42.7608 35.5823 43.0083 35.9949 43.5034 35.9949H43.586C43.8335 35.9949 44.0811 35.7473 44.2461 35.4172C45.4013 32.8592 45.4839 30.8788 44.2461 28.7333C44.0811 28.4033 43.8335 28.1557 43.5034 28.1557Z" fill="#042326"/>
<path d="M17.7579 54.396V48.6198C17.7579 42.6785 15.6949 36.8198 11.8991 32.1163L0.181641 17.6757L2.07954 16.1904L13.797 30.7135C17.9229 35.8296 20.1509 42.1834 20.1509 48.7023V54.4785H17.7579V54.396Z" fill="#042326"/>
<path d="M48.5376 54.2306L51.8383 33.1061C52.8285 26.5047 50.0229 19.7383 44.4942 15.4474L27.5781 2.07954L29.0634 0.181641L45.9795 13.5495C52.1683 18.3355 55.304 25.9271 54.2313 33.4362L50.9306 54.5607L48.5376 54.2306Z" fill="#042326"/>
<path d="M24.6893 33.9313C23.204 33.9313 21.8012 33.5187 20.646 32.611C18.8306 31.2907 17.7579 29.2278 17.7579 26.9998C17.7579 26.2572 17.8404 25.5145 18.0879 24.8544C18.5005 23.6166 18.253 22.3788 17.5103 21.6362L0.181641 4.14248L1.91451 2.40961L19.3257 19.8208C20.7285 21.2236 21.2236 23.4516 20.4809 25.5145C20.3159 26.0096 20.2334 26.4222 20.2334 26.9173C20.2334 28.3201 20.8935 29.7229 22.1313 30.5481C22.8739 31.1257 23.7816 31.3733 24.7718 31.3733C25.267 31.3733 25.8446 31.2907 26.3397 31.1257C28.1551 30.5481 29.3928 28.6502 29.3103 26.6698C29.3103 26.4222 29.2278 26.1747 29.2278 25.9271C29.1453 25.5145 29.2278 25.0194 29.5579 24.7719C29.8054 24.5243 30.1355 24.4418 30.383 24.4418C30.4656 24.4418 30.6306 24.4418 30.7131 24.5243C30.9607 24.6068 31.2907 24.6068 31.7033 24.6068C33.1061 24.6068 34.4264 23.9467 35.2516 22.8739C36.1593 21.7187 36.4068 20.3159 35.9942 18.9131C35.6642 17.5103 34.5089 16.3551 33.1886 15.9425C32.6935 15.7774 32.1159 15.6949 31.6208 15.6949C31.1257 15.6949 30.5481 15.7774 30.053 15.9425C29.3928 16.19 28.7327 16.2726 28.0725 16.2726C26.7523 16.2726 25.5145 15.7774 24.6068 14.8698L11.5691 1.91451L13.3019 0.181641L26.2572 13.1369C26.6698 13.5495 27.3299 13.797 27.99 13.797C28.4026 13.797 28.7327 13.7145 29.1453 13.5495C29.8879 13.3019 30.7131 13.1369 31.5383 13.1369C32.3635 13.1369 33.1061 13.3019 33.8488 13.5495C35.9117 14.2921 37.5621 16.025 38.1397 18.1705C38.7173 20.3159 38.3047 22.5439 36.9844 24.2767C35.7467 25.8446 34.0138 26.8348 32.0334 26.9173H31.6208V27.3299C31.3732 30.1355 29.5579 32.5285 26.9998 33.3537C26.2572 33.7663 25.432 33.9313 24.6893 33.9313Z" fill="#042326"/>
<defs>
<linearGradient id="paint0_linear_133_1452" x1="26.9844" y1="46.413" x2="39.5324" y2="46.413" gradientUnits="userSpaceOnUse">
<stop stop-color="#04A6C2" stop-opacity="0.01"/>
<stop offset="0.533" stop-color="#04A6C2" stop-opacity="0.68"/>
<stop offset="0.8307" stop-color="#04A6C2" stop-opacity="0.88"/>
<stop offset="1" stop-color="#04A6C2"/>
</linearGradient>
<linearGradient id="paint1_linear_133_1452" x1="2.01331" y1="17.1425" x2="37.2524" y2="17.1425" gradientUnits="userSpaceOnUse">
<stop stop-color="#04A6C2" stop-opacity="0.01"/>
<stop offset="0.533" stop-color="#04A6C2" stop-opacity="0.68"/>
<stop offset="0.8307" stop-color="#04A6C2" stop-opacity="0.88"/>
<stop offset="1" stop-color="#04A6C2"/>
</linearGradient>
<linearGradient id="paint2_linear_133_1452" x1="40.6739" y1="32.1208" x2="46.3793" y2="32.1208" gradientUnits="userSpaceOnUse">
<stop stop-color="#04A6C2" stop-opacity="0.01"/>
<stop offset="0.533" stop-color="#04A6C2" stop-opacity="0.68"/>
<stop offset="0.8307" stop-color="#04A6C2" stop-opacity="0.88"/>
<stop offset="1" stop-color="#04A6C2"/>
</linearGradient>
</defs>
</svg>
