<svg width="50" height="56" viewBox="0 0 50 56" fill="none" xmlns="http://www.w3.org/2000/svg">
<path opacity="0.4" d="M40.2661 30.9703L39.4409 35.1787C38.9458 37.8193 37.378 40.1298 35.0675 41.6151C32.2619 43.4305 28.7137 43.8431 25.6605 42.6053L23.4325 41.6976C21.3696 40.8724 21.4521 37.9843 23.5976 37.2417C27.1458 36.0864 29.6214 33.0333 30.0339 29.4025C30.364 26.3494 33.4172 24.2039 36.4703 24.9466C39.1109 25.6067 40.8437 28.2473 40.2661 30.9703Z" fill="url(#paint0_linear_133_1429)"/>
<path d="M29.4563 44.5034C27.971 44.5034 26.5682 44.2558 25.2479 43.6782L22.9374 42.853C21.5346 42.2754 20.627 40.9551 20.627 39.3873C20.7095 37.8195 21.6172 36.5817 23.1025 36.0866C26.1556 35.0964 28.3011 32.3733 28.7137 29.2377C28.9612 27.4223 29.8689 25.7719 31.4368 24.6992C32.5095 23.9565 33.8298 23.5439 35.15 23.5439C35.6451 23.5439 36.2228 23.6265 36.7179 23.709C40.1011 24.5342 42.164 27.8349 41.5039 31.1356L40.6787 35.3439C40.1011 38.3146 38.3682 40.8726 35.8102 42.523C33.9123 43.8432 31.6843 44.5034 29.4563 44.5034ZM35.15 26.0195C34.3249 26.0195 33.4997 26.267 32.8395 26.7621C31.9319 27.4223 31.3542 28.4125 31.1892 29.4852C30.6941 33.6111 27.8885 37.0768 23.9277 38.3971C23.4325 38.5621 23.185 38.9747 23.185 39.3873C23.185 39.8824 23.4325 40.295 23.9277 40.46L26.1556 41.3677C27.2284 41.7803 28.3011 42.0279 29.4563 42.0279C31.1892 42.0279 32.9221 41.5327 34.4074 40.5425C36.3878 39.2223 37.7081 37.2418 38.2032 34.9314L39.0284 30.723C39.4409 28.66 38.1207 26.6796 36.0577 26.1845C35.8102 26.102 35.4801 26.0195 35.15 26.0195Z" fill="#042326"/>
<path d="M0.988281 54.9835C1.0708 48.8772 3.71136 43.266 8.24982 39.5527C19.7197 30.1458 18.0694 16.4479 17.8218 14.9625V14.715L17.6568 14.55C14.9337 12.4045 13.3659 9.26883 13.3659 5.8031V0.769531H15.8414V5.8031C15.8414 9.1038 17.6568 11.9919 20.6274 13.4772L23.268 14.7975L22.1953 17.0255L20.6274 16.2003V17.1905C20.7925 22.8017 19.7197 33.4465 9.98269 41.4507C6.02185 44.6688 3.71136 49.6199 3.62884 54.9835H0.988281Z" fill="#042326"/>
<path d="M10.7246 54.7355L11.3847 51.1872C11.7973 49.0418 13.2826 47.3914 15.3456 46.6488C16.0057 46.4012 16.6659 46.3187 17.4085 46.3187C18.8113 46.3187 20.1316 46.8138 21.2868 47.7215L21.6994 48.0516C24.0099 49.9495 26.898 51.0222 29.7861 51.0222C32.1792 51.0222 34.4896 50.362 36.5526 49.0418C42.8239 45.0809 46.6197 38.3145 46.6197 30.8879C46.6197 22.2236 41.5036 14.4669 33.4994 11.0837L28.3008 8.93827C24.9176 7.78303 22.6071 4.56484 22.6071 0.934075V0.686523H25.0826V0.934075C25.0826 3.49212 26.733 5.8026 29.126 6.62778L34.4071 8.85575C43.319 12.569 49.0952 21.2334 49.0952 30.9704C49.0952 39.3047 44.8868 46.8963 37.8729 51.2697C35.4798 52.7551 32.6743 53.5802 29.7861 53.5802C26.2379 53.5802 22.7722 52.3425 20.0491 50.032L19.6365 49.7019C18.9764 49.1243 18.2337 48.8767 17.4085 48.8767C16.9959 48.8767 16.5833 48.9592 16.2533 49.0418C15.098 49.4544 14.1903 50.4446 13.9428 51.6823L13.2826 55.2306L10.7246 54.7355Z" fill="#042326"/>
<defs>
<linearGradient id="paint0_linear_133_1429" x1="21.9221" y1="34.0303" x2="40.3924" y2="34.0303" gradientUnits="userSpaceOnUse">
<stop stop-color="#04A6C2" stop-opacity="0.01"/>
<stop offset="0.533" stop-color="#04A6C2" stop-opacity="0.68"/>
<stop offset="0.8307" stop-color="#04A6C2" stop-opacity="0.88"/>
<stop offset="1" stop-color="#04A6C2"/>
</linearGradient>
</defs>
</svg>
