<svg width="56" height="56" viewBox="0 0 56 56" fill="none" xmlns="http://www.w3.org/2000/svg">
<path opacity="0.4" d="M3.24414 48.299C3.24414 51.3522 5.71967 53.8277 8.77281 53.8277C11.826 53.8277 14.3015 51.3522 14.3015 48.299C14.3015 44.1731 11.0833 39.1396 8.77281 36.334C6.62736 39.1396 3.24414 44.0906 3.24414 48.299Z" fill="url(#paint0_linear_133_1392)"/>
<path d="M8.69024 55.396C4.48185 55.396 1.09863 52.0127 1.09863 47.8043C1.09863 41.1204 7.78255 34.2715 7.86506 34.189C8.11262 33.9414 8.44269 33.7764 8.77276 33.7764C9.10283 33.7764 9.4329 33.9414 9.68045 34.189C9.76297 34.2715 16.3644 41.2855 16.1993 47.8043C16.1993 52.0127 12.8161 55.396 8.69024 55.396ZM8.44269 37.2421C5.22451 41.4505 3.57416 44.9987 3.57416 47.8869C3.57416 50.8575 5.88465 53.168 8.85528 53.168C11.7434 53.168 14.1364 50.775 14.1364 47.8869C14.1364 43.6785 10.6707 39.0575 9.26786 37.2421L8.93779 36.8295L8.44269 37.2421Z" fill="#042326"/>
<path d="M27.0921 55.3956C24.6166 55.3131 22.6362 53.9103 21.8935 51.7648C21.1509 49.6194 21.7285 47.2264 23.2963 45.8236L23.7089 45.4935L23.2963 45.1634C22.2236 44.2558 21.5634 42.7704 21.5634 41.2026C21.5634 39.6348 22.2236 38.1495 23.2963 37.2418L23.7089 36.9117L23.2963 36.5816C22.3061 35.7565 20.6558 33.0334 22.2236 29.9802L22.5537 29.3201H6.13268C2.33687 29.1551 0.686523 26.3495 0.686523 23.7914C0.686523 21.2334 2.41939 18.4278 6.21519 18.2627H34.1061L32.4558 16.6124C30.3928 14.4669 29.2376 11.6613 29.2376 8.77324C29.3201 5.72009 30.5578 2.99701 32.5383 1.09911C32.7858 0.851558 33.1159 0.686523 33.446 0.686523C33.776 0.686523 34.0236 0.769039 34.1886 1.01659L55.1481 22.1411C55.3956 22.3061 55.5606 22.5536 55.4781 22.8012V50.032C55.4781 53.0026 52.9201 55.5606 49.9495 55.5606H27.0921V55.3956ZM39.1397 34.8488C38.7271 35.6739 38.232 36.169 37.9019 36.4991L37.4893 36.8292L37.8194 37.1592C38.8921 38.0669 39.5523 39.5523 39.5523 41.1201C39.5523 42.6879 38.8921 44.1732 37.8194 45.0809L37.4893 45.576L37.9019 45.9061C38.8921 46.7313 40.5425 49.4543 38.9746 52.5075L38.6446 53.1676H49.7844C51.5998 53.1676 53.0026 51.7648 53.0026 49.9495V23.2963L33.1984 3.57464L32.8683 3.98722C31.9606 5.3075 31.4655 6.87533 31.4655 8.69072C31.4655 11.0012 32.3732 13.2292 33.9411 14.797L39.3047 20.1606C39.4697 20.3257 39.6348 20.6558 39.6348 20.9858V27.9998C39.6348 32.2082 43.018 35.5914 47.2264 35.5914C47.8865 35.5914 48.4641 36.169 48.4641 36.8292C48.4641 37.4893 47.8865 38.0669 47.2264 38.0669C44.4208 38.0669 41.7802 36.8292 39.8823 34.7662L39.3872 34.1886L39.1397 34.8488ZM27.1746 46.7313C24.9467 46.8138 23.9564 48.4641 23.9564 49.9495C23.9564 51.4348 24.9467 53.0851 27.1746 53.1676H34.1886C36.4166 53.0026 37.3243 51.3523 37.3243 49.8669C37.3243 48.3816 36.3341 46.8138 34.1886 46.7313H27.1746ZM27.1746 37.9019C24.9467 37.9844 23.9564 39.6348 23.9564 41.1201C23.9564 42.6054 24.9467 44.2558 27.1746 44.3383H34.1886C36.3341 44.2558 37.3243 42.6054 37.3243 41.1201C37.3243 39.6348 36.3341 37.9844 34.1886 37.9019H27.1746ZM27.1746 29.2376C24.9467 29.3201 23.9564 30.9704 23.9564 32.4558C23.9564 33.9411 24.9467 35.5914 27.1746 35.6739H34.1886C36.3341 35.5914 37.3243 33.9411 37.3243 32.4558C37.3243 30.9704 36.3341 29.3201 34.1886 29.2376H27.1746ZM6.21519 20.4082C3.98722 20.4907 2.99701 22.1411 2.99701 23.6264C2.99701 25.1117 3.98722 26.762 6.21519 26.8446H34.1061C35.0138 26.8446 35.839 27.0096 36.6641 27.5047L37.3243 27.8348L37.4893 21.5634L36.4166 20.4907H6.21519V20.4082Z" fill="#042326"/>
<defs>
<linearGradient id="paint0_linear_133_1392" x1="3.28144" y1="45.0787" x2="14.2994" y2="45.0787" gradientUnits="userSpaceOnUse">
<stop stop-color="#04A6C2" stop-opacity="0.01"/>
<stop offset="0.533" stop-color="#04A6C2" stop-opacity="0.68"/>
<stop offset="0.8307" stop-color="#04A6C2" stop-opacity="0.88"/>
<stop offset="1" stop-color="#04A6C2"/>
</linearGradient>
</defs>
</svg>
