<svg width="50" height="57" viewBox="0 0 50 57" fill="none" xmlns="http://www.w3.org/2000/svg">
<path opacity="0.4" d="M20.7553 44.7233C11.2473 44.7233 3.26748 36.7435 2.67324 26.4715C2.50345 24.4341 2.50345 22.3967 2.67324 20.4442C3.26748 10.1722 11.2473 2.19238 20.7553 2.19238C22.538 2.19238 24.2358 3.1262 25.2545 4.73915C26.443 6.60677 26.5279 8.89886 25.5941 10.8514C23.8963 14.4168 22.8776 17.9823 22.6229 21.6327L23.4718 30.2917C23.9812 32.2442 24.6603 34.1118 25.5941 36.0643C26.5279 38.0168 26.443 40.3938 25.2545 42.1766C24.2358 43.7895 22.6229 44.7233 20.7553 44.7233Z" fill="url(#paint0_linear_133_1417)"/>
<path d="M20.8397 46.5056C10.3131 46.5056 1.56917 37.7617 0.890033 26.6408C0.720249 24.5185 0.720249 22.3962 0.890033 20.3588C1.56917 9.15306 10.3131 0.40918 20.7548 0.40918C23.1318 0.40918 25.4238 1.68256 26.6972 3.80486C28.1404 6.18184 28.3102 9.06817 27.1217 11.6149C25.5936 14.7559 24.6598 17.9818 24.3202 21.1228L22.0282 20.9531C22.3677 17.4725 23.3864 13.9919 24.9994 10.5962C25.8483 8.8135 25.7634 6.77609 24.7447 5.07824C23.8109 3.63508 22.3677 2.78616 20.8397 2.78616C11.5864 2.78616 3.86126 10.5962 3.26701 20.4437C3.09723 22.3962 3.09723 24.4336 3.26701 26.471C3.86126 36.4034 11.5864 44.1286 20.7548 44.1286C22.3677 44.1286 23.8109 43.2797 24.6598 41.8365C25.6785 40.2236 25.7634 38.1013 24.9145 36.3185C24.0656 34.5358 23.3864 32.838 22.962 31.0552L25.2541 30.461C25.6785 32.0739 26.2728 33.602 27.1217 35.2149C28.3102 37.6768 28.1404 40.7329 26.6972 43.025C25.4238 45.2322 23.2167 46.5056 20.8397 46.5056Z" fill="#042326"/>
<path d="M36.3757 45.062C35.6117 37.1671 29.075 31.2246 21.0952 31.2246C20.0765 31.2246 19.1427 31.6491 18.4635 32.4131L13.7945 37.6764L12.0117 36.0635L16.6808 30.8002C17.7844 29.5268 19.3973 28.8477 21.0952 28.8477C30.2635 28.8477 37.9038 35.7239 38.7527 44.8923L39.7714 55.9282L37.3945 56.1829L36.3757 45.062Z" fill="#042326"/>
<path d="M28.2256 21.6322L29.7536 20.274C32.8947 17.4725 34.7623 15.8596 36.8846 10.002L37.309 8.89844L39.5162 9.74736L39.0918 10.851C36.7997 17.2179 34.5076 19.2553 31.2817 22.0567L29.7536 23.415L28.2256 21.6322Z" fill="#042326"/>
<path d="M35.6963 25.028L36.5452 24.1791C39.1769 21.7172 42.8272 17.2179 45.0344 10.087L45.374 8.9834L47.6661 9.66253L47.3265 10.7661C44.9495 18.4064 41.0445 23.2453 38.1582 25.8769L37.3092 26.7258L35.6963 25.028Z" fill="#042326"/>
<path d="M45.4593 42.2613C44.2708 31.2253 35.0175 22.9059 23.8967 22.9059C21.265 22.9059 18.7183 21.8872 16.7657 20.1045L12.0967 15.8599L13.7096 14.0771L18.3787 18.3218C19.9068 19.68 21.8593 20.4441 23.8967 20.4441C36.206 20.4441 46.5629 29.6973 47.8363 41.9218L49.2794 55.7592L46.9024 56.0138L45.4593 42.2613Z" fill="#042326"/>
<path d="M8.9548 27.4051L11.2469 26.3015C11.5865 26.1318 11.8411 25.7922 11.8411 25.4526C11.926 25.0282 11.7562 24.6886 11.5016 24.4339L8.61523 21.8023L10.2282 20.0195L13.1145 22.6512C13.9634 23.4152 14.3879 24.6037 14.2181 25.7922C14.0483 26.9807 13.3692 27.9994 12.2656 28.5087L9.97351 29.6123L8.9548 27.4051Z" fill="#042326"/>
<defs>
<linearGradient id="paint0_linear_133_1417" x1="2.57782" y1="23.4573" x2="26.2314" y2="23.4573" gradientUnits="userSpaceOnUse">
<stop stop-color="#04A6C2" stop-opacity="0.01"/>
<stop offset="0.533" stop-color="#04A6C2" stop-opacity="0.68"/>
<stop offset="0.8307" stop-color="#04A6C2" stop-opacity="0.88"/>
<stop offset="1" stop-color="#04A6C2"/>
</linearGradient>
</defs>
</svg>
