<svg width="50" height="55" viewBox="0 0 50 55" fill="none" xmlns="http://www.w3.org/2000/svg">
<path opacity="0.4" d="M37.4598 40.5426C41.2879 40.5426 44.3913 37.4393 44.3913 33.6112C44.3913 29.783 41.2879 26.6797 37.4598 26.6797C33.6316 26.6797 30.5283 29.783 30.5283 33.6112C30.5283 37.4393 33.6316 40.5426 37.4598 40.5426Z" fill="url(#paint0_linear_133_1400)"/>
<path d="M19.5541 25.1122C18.6464 25.1122 17.8213 24.7822 17.1611 24.122C16.9136 23.8745 16.8311 23.6269 16.8311 23.2969C16.8311 22.9668 16.9136 22.7192 17.1611 22.4717C17.4087 22.2241 17.6562 22.1416 17.9863 22.1416C18.3164 22.1416 18.5639 22.2241 18.8115 22.4717C18.9765 22.6367 19.3066 22.8017 19.5541 22.8017C19.8017 22.8017 20.1318 22.7192 20.2968 22.4717C20.5443 22.2241 20.7919 22.1416 21.122 22.1416C21.452 22.1416 21.6996 22.2241 21.9471 22.4717C22.1947 22.7192 22.2772 22.9668 22.2772 23.2969C22.2772 23.6269 22.1947 23.8745 21.9471 24.122C21.287 24.7822 20.4618 25.1122 19.5541 25.1122Z" fill="#042326"/>
<path d="M30.4457 25.1122C29.538 25.1122 28.7129 24.7822 28.0527 24.122C27.8052 23.8745 27.7227 23.6269 27.7227 23.2969C27.7227 22.9668 27.8052 22.7192 28.0527 22.4717C28.3003 22.2241 28.5478 22.1416 28.8779 22.1416C29.208 22.1416 29.4555 22.2241 29.7031 22.4717C29.8681 22.6367 30.1982 22.8017 30.4457 22.8017C30.6933 22.8017 31.0234 22.7192 31.1884 22.4717C31.4359 22.2241 31.6835 22.1416 32.0136 22.1416C32.3436 22.1416 32.5912 22.2241 32.8387 22.4717C33.0863 22.7192 33.1688 22.9668 33.1688 23.2969C33.1688 23.6269 33.0863 23.8745 32.8387 24.122C32.1786 24.7822 31.3534 25.1122 30.4457 25.1122Z" fill="#042326"/>
<path d="M37.4599 32.291C37.1299 32.291 36.8823 32.2084 36.6348 31.9609C36.3872 31.7133 36.3047 31.4658 36.3047 31.1357C36.3047 30.8056 36.3872 30.5581 36.6348 30.3105C36.8823 30.063 37.1299 29.9805 37.4599 29.9805C37.79 29.9805 38.0376 30.063 38.2851 30.3105C38.5327 30.5581 38.6152 30.8056 38.6152 31.1357C38.6152 31.4658 38.5327 31.7133 38.2851 31.9609C38.0376 32.2084 37.7075 32.291 37.4599 32.291Z" fill="#042326"/>
<path d="M35.0673 36.582C34.7373 36.582 34.4897 36.4995 34.2422 36.2519C33.9946 36.0044 33.9121 35.7568 33.9121 35.4267C33.9121 35.0967 33.9946 34.8491 34.2422 34.6016C34.4897 34.354 34.7373 34.2715 35.0673 34.2715C35.3974 34.2715 35.645 34.354 35.8925 34.6016C36.1401 34.8491 36.2226 35.0967 36.2226 35.4267C36.2226 35.7568 36.1401 36.0044 35.8925 36.2519C35.645 36.4169 35.3149 36.582 35.0673 36.582Z" fill="#042326"/>
<path d="M39.9355 36.582C39.6055 36.582 39.3579 36.4995 39.1103 36.2519C38.8628 36.0044 38.7803 35.7568 38.7803 35.4267C38.7803 35.0967 38.8628 34.8491 39.1103 34.6016C39.3579 34.354 39.6055 34.2715 39.9355 34.2715C40.2656 34.2715 40.5131 34.354 40.7607 34.6016C41.0082 34.8491 41.0908 35.0967 41.0908 35.4267C41.0908 35.7568 41.0082 36.0044 40.7607 36.2519C40.5131 36.4169 40.1831 36.582 39.9355 36.582Z" fill="#042326"/>
<path d="M17.9863 30.0634C17.6562 30.0634 17.4087 29.9809 17.1611 29.7333C16.9136 29.4858 16.8311 29.2382 16.8311 28.9082C16.8311 28.5781 16.9136 28.3306 17.1611 28.083C17.4087 27.8354 17.6562 27.7529 17.9863 27.7529C18.3164 27.7529 18.5639 27.8354 18.8115 28.083C19.059 28.3306 19.1415 28.5781 19.1415 28.9082C19.1415 29.2382 19.059 29.4858 18.8115 29.7333C18.6464 29.8984 18.3164 30.0634 17.9863 30.0634Z" fill="#042326"/>
<path d="M22.2763 30.0634C21.9463 30.0634 21.6987 29.9809 21.4512 29.7333C21.2036 29.4858 21.1211 29.2382 21.1211 28.9082C21.1211 28.5781 21.2036 28.3306 21.4512 28.083C21.6987 27.8354 21.9463 27.7529 22.2763 27.7529C22.6064 27.7529 22.854 27.8354 23.1015 28.083C23.3491 28.3306 23.4316 28.5781 23.4316 28.9082C23.4316 29.2382 23.3491 29.4858 23.1015 29.7333C22.854 29.8984 22.6064 30.0634 22.2763 30.0634Z" fill="#042326"/>
<path d="M40.4306 44.3387H31.4362V43.101V39.9653C33.0866 41.5331 35.232 42.3583 37.46 42.3583C42.246 42.3583 46.2069 38.3975 46.2069 33.6115C46.2069 29.073 42.8236 25.3597 38.3677 24.9471V20.9863C38.9453 20.6562 39.4404 20.1611 39.853 19.5835C41.1733 17.273 41.5859 14.5499 40.8432 11.9919C40.1831 9.43385 38.4502 7.20588 36.1397 5.8856L27.8055 1.09959C26.6502 0.439446 25.4125 0.109375 24.1747 0.109375C22.7719 0.109375 21.3691 0.521962 20.1313 1.34714C19.3062 1.92476 18.5635 2.66742 18.0684 3.49259L13.7775 5.96811C11.467 7.28839 9.81666 9.43385 9.074 12.0744C8.41386 14.6325 8.74393 17.3555 10.0642 19.666C10.3943 20.2436 10.8894 20.7387 11.5495 21.0688V27.6702C11.5495 32.5387 14.1901 37.0772 18.481 39.3877V43.1835V44.4213H9.48659C4.45302 44.4213 0.327148 48.5471 0.327148 53.5807C0.327148 54.2408 0.822255 54.7359 1.48239 54.7359C2.14253 54.7359 2.63764 54.2408 2.63764 53.5807C2.63764 49.7849 5.7733 46.6492 9.56911 46.6492H19.7188C20.3789 46.6492 20.874 46.1541 20.874 45.494V43.1835V40.3779C22.1943 40.7905 23.5971 41.038 25.0824 41.038C26.4852 41.038 27.888 40.7905 29.2908 40.3779V43.1835V45.494C29.2908 46.1541 29.7859 46.6492 30.446 46.6492H40.5957C44.3915 46.6492 47.5271 49.7849 47.5271 53.5807C47.5271 54.2408 48.0222 54.7359 48.6824 54.7359C49.3425 54.7359 49.8376 54.2408 49.8376 53.5807C49.5901 48.4646 45.5467 44.3387 40.4306 44.3387ZM43.9789 33.6115C43.9789 37.1597 41.0908 40.0478 37.5425 40.0478C33.9943 40.0478 31.1062 37.1597 31.1062 33.6115C31.1062 30.0632 33.9943 27.1751 37.5425 27.1751C41.0908 27.1751 43.9789 30.0632 43.9789 33.6115ZM21.4516 3.24504C22.2768 2.66742 23.267 2.41986 24.1747 2.41986C25.0824 2.41986 25.9076 2.66742 26.6502 3.08L34.9845 7.86602C36.7999 8.93874 38.0376 10.5891 38.6153 12.5695C39.1104 14.5499 38.8628 16.6129 37.8726 18.4283C37.625 18.9234 37.1299 19.1709 36.5523 19.1709C36.3048 19.1709 36.0572 19.0884 35.8097 19.0059L21.6167 10.8366C20.2964 10.094 19.4712 8.69119 19.3887 7.12336C19.3887 5.47301 20.1313 4.07021 21.4516 3.24504ZM12.1271 18.4283C11.0544 16.6129 10.8069 14.5499 11.3845 12.5695C11.8796 10.5891 13.1999 8.93874 15.0153 7.86602L17.1607 6.62825C17.1607 6.79329 17.1607 6.95833 17.1607 7.12336C17.2432 9.51637 18.481 11.5793 20.5439 12.8171L22.7719 14.0548L14.2726 19.0059C14.025 19.1709 13.7775 19.1709 13.5299 19.1709C12.8698 19.1709 12.3747 18.9234 12.1271 18.4283ZM24.9999 38.7276C18.8936 38.7276 13.86 33.7765 13.86 27.5877V21.4814C14.3551 21.3989 14.8502 21.2338 15.2628 20.9863L24.9174 15.3751L34.6544 20.9863C35.067 21.2338 35.5621 21.3989 36.0572 21.4814V25.0297C31.8488 25.6898 28.7132 29.4031 28.7132 33.694C28.7132 35.0968 29.0432 36.4996 29.7034 37.7373C28.2181 38.315 26.6502 38.7276 24.9999 38.7276Z" fill="#042326"/>
<defs>
<linearGradient id="paint0_linear_133_1400" x1="30.5189" y1="33.627" x2="44.3692" y2="33.627" gradientUnits="userSpaceOnUse">
<stop stop-color="#04A6C2" stop-opacity="0.01"/>
<stop offset="0.533" stop-color="#04A6C2" stop-opacity="0.68"/>
<stop offset="0.8307" stop-color="#04A6C2" stop-opacity="0.88"/>
<stop offset="1" stop-color="#04A6C2"/>
</linearGradient>
</defs>
</svg>
