<svg width="744" height="509" viewBox="0 0 744 509" fill="none" xmlns="http://www.w3.org/2000/svg">
<path d="M338.322 350.492L407.006 390.175V469.54L338.322 509.222L269.638 469.54V390.175L338.322 350.492ZM404.569 391.505L338.322 353.152L272.075 391.505V467.988L338.322 506.34L404.569 467.988V391.505Z" fill="white"/>
<path d="M203.393 350.492L272.077 390.175V469.54L203.393 509.222L134.71 469.54V390.175L203.393 350.492ZM269.64 391.505L203.393 353.152L137.147 391.505V467.988L203.393 506.34L269.64 467.988V391.505Z" fill="white"/>
<path d="M68.6837 350.492L137.367 390.175V469.54L68.6837 509.222L0 469.54V390.175L68.6837 350.492ZM134.93 391.505L68.6837 353.374L2.43717 391.505V467.988L68.6837 506.34L134.93 467.988V391.505Z" fill="white"/>
<path d="M675.538 233.662L744.222 273.345V352.71L675.538 392.392L606.854 352.71V273.345L675.538 233.662ZM741.785 274.675L675.538 236.322L609.292 274.675V351.158L675.538 389.51L741.785 351.158V274.675Z" fill="white"/>
<path d="M540.608 233.662L609.291 273.345V352.71L540.608 392.392L471.924 352.71V273.345L540.608 233.662ZM606.854 274.675L540.608 236.322L474.361 274.675V351.158L540.608 389.51L606.854 351.158V274.675Z" fill="white"/>
<path d="M405.677 233.662L474.361 273.345V352.71L405.677 392.392L336.993 352.71V273.345L405.677 233.662ZM471.923 274.675L405.677 236.322L339.43 274.675V351.158L405.677 389.51L471.923 351.158V274.675Z" fill="white"/>
<path d="M270.969 233.662L339.653 273.345V352.71L270.969 392.392L202.286 352.71V273.345L270.969 233.662ZM337.216 274.675L270.969 236.322L204.723 274.675V351.158L270.969 389.51L337.216 351.158V274.675Z" fill="white"/>
<path d="M136.039 233.662L204.722 273.345V352.71L136.039 392.392L67.3549 352.71V273.345L136.039 233.662ZM202.285 274.675L136.039 236.322L69.792 274.675V351.158L136.039 389.51L202.285 351.158V274.675Z" fill="white"/>
<path d="M607.962 116.83L676.646 156.513V235.878L607.962 275.56L539.279 235.878V156.513L607.962 116.83ZM674.209 157.843L607.962 119.49L541.716 157.843V234.326L607.962 272.678L674.209 234.326V157.843Z" fill="white"/>
<path d="M473.253 116.83L541.936 156.513V235.878L473.253 275.56L404.569 235.878V156.513L473.253 116.83ZM539.499 157.843L473.253 119.49L407.006 157.843V234.326L473.253 272.678L539.499 234.326V157.843Z" fill="white"/>
<path d="M203.393 116.83L272.077 156.513V235.878L203.393 275.56L134.71 235.878V156.513L203.393 116.83ZM269.64 157.843L203.393 119.49L137.147 157.843V234.326L203.393 272.678L269.64 234.326V157.843Z" fill="white"/>
<path d="M540.608 0L609.291 39.6825V119.047L540.608 158.73L471.924 119.047V39.6825L540.608 0ZM606.854 41.0126L540.608 2.66028L474.361 41.0126V117.496L540.608 155.848L606.854 117.496V41.0126Z" fill="white"/>
</svg>
