<svg width="88" height="96" viewBox="0 0 88 96" fill="none" xmlns="http://www.w3.org/2000/svg">
<g clip-path="url(#clip0_133_1304)">
<path opacity="0.2" d="M75.0996 3.2998C69.7996 3.2998 65.5996 7.5998 65.5996 12.7998V47.1998H84.6996V12.8998C84.5996 7.5998 80.2996 3.2998 75.0996 3.2998Z" fill="url(#paint0_linear_133_1304)"/>
<path d="M75.1 0H12.6C5.6 0 0 5.6 0 12.6V93.9C0 94.8 0.7 95.6 1.7 95.6H63.9C64.8 95.6 65.6 94.9 65.6 93.9V50.6H86.3C87.2 50.6 88 49.9 88 48.9V12.9C87.9 5.8 82.2 0 75.1 0ZM64.7 5.3C63.1 7.5 62.2 10.2 62.2 12.9V92.3H3.3V12.6C3.3 7.5 7.4 3.4 12.5 3.4H66L64.7 5.3ZM84.6 47.3H65.5V12.9C65.5 7.6 69.8 3.4 75 3.4C80.2 3.4 84.5 7.7 84.5 12.9V47.3H84.6Z" fill="#042326"/>
<path opacity="0.4" d="M38.1996 33.9998C40.6996 31.4998 41.6996 27.8998 40.8996 24.4998L40.3996 22.3998L32.5996 30.1998C32.2996 30.4998 31.8996 30.6998 31.3996 30.6998C30.8996 30.6998 30.4996 30.4998 30.1996 30.1998L26.5996 26.5998C26.2996 26.2998 26.0996 25.8998 26.0996 25.3998C26.0996 24.9998 26.2996 24.4998 26.5996 24.1998C26.8996 23.8998 27.2996 23.6998 27.7996 23.6998C28.2996 23.6998 28.6996 23.8998 28.9996 24.1998L31.3996 26.5998L38.2996 19.6998L37.1996 18.8998C35.3996 17.4998 33.2996 16.7998 30.9996 16.7998C28.2996 16.7998 25.7996 17.7998 23.8996 19.7998C19.9996 23.5998 19.9996 29.9998 23.8996 33.9998C25.7996 35.8998 28.2996 36.9998 30.9996 36.9998C33.6996 36.9998 36.2996 35.8998 38.1996 33.9998Z" fill="url(#paint1_linear_133_1304)"/>
<path opacity="0.2" d="M38.1996 33.9998C40.6996 31.4998 41.6996 27.8998 40.8996 24.4998L40.3996 22.3998L32.5996 30.1998C32.2996 30.4998 31.8996 30.6998 31.3996 30.6998C30.8996 30.6998 30.4996 30.4998 30.1996 30.1998L26.5996 26.5998C26.2996 26.2998 26.0996 25.8998 26.0996 25.3998C26.0996 24.9998 26.2996 24.4998 26.5996 24.1998C26.8996 23.8998 27.2996 23.6998 27.7996 23.6998C28.2996 23.6998 28.6996 23.8998 28.9996 24.1998L31.3996 26.5998L38.2996 19.6998L37.1996 18.8998C35.3996 17.4998 33.2996 16.7998 30.9996 16.7998C28.2996 16.7998 25.7996 17.7998 23.8996 19.7998C19.9996 23.5998 19.9996 29.9998 23.8996 33.9998C25.7996 35.8998 28.2996 36.9998 30.9996 36.9998C33.6996 36.9998 36.2996 35.8998 38.1996 33.9998Z" fill="url(#paint2_linear_133_1304)"/>
<path opacity="0.2" d="M12.6004 3.2998C7.50039 3.2998 3.40039 7.3998 3.40039 12.4998V92.1998H62.3004V12.8998C62.3004 10.0998 63.2004 7.4998 64.8004 5.2998L66.2004 3.3998H12.6004V3.2998ZM13.2004 80.2998C12.3004 80.2998 11.5004 79.5998 11.5004 78.5998C11.5004 77.5998 12.2004 76.8998 13.2004 76.8998C14.2004 76.8998 14.9004 77.5998 14.9004 78.5998C14.9004 79.5998 14.1004 80.2998 13.2004 80.2998ZM13.2004 68.7998C12.3004 68.7998 11.5004 68.0998 11.5004 67.0998C11.5004 66.0998 12.2004 65.3998 13.2004 65.3998C14.2004 65.3998 14.9004 66.0998 14.9004 67.0998C14.9004 68.0998 14.1004 68.7998 13.2004 68.7998ZM13.2004 57.2998C12.3004 57.2998 11.5004 56.5998 11.5004 55.5998C11.5004 54.5998 12.2004 53.8998 13.2004 53.8998C14.2004 53.8998 14.9004 54.5998 14.9004 55.5998C14.9004 56.5998 14.1004 57.2998 13.2004 57.2998ZM21.6004 17.2998C24.1004 14.7998 27.5004 13.3998 31.1004 13.3998C34.3004 13.3998 37.4004 14.4998 39.8004 16.5998L40.6004 17.2998L45.0004 12.9998C45.3004 12.6998 45.7004 12.4998 46.2004 12.4998C46.7004 12.4998 47.1004 12.6998 47.4004 12.9998C48.1004 13.6998 48.1004 14.6998 47.4004 15.3998L42.7004 19.9998L43.1004 20.7998C45.7004 25.9998 44.7004 32.1998 40.6004 36.2998C38.1004 38.7998 34.7004 40.1998 31.1004 40.1998C27.5004 40.1998 24.1004 38.7998 21.6004 36.2998C16.3004 31.0998 16.3004 22.5998 21.6004 17.2998ZM52.4004 80.2998H24.6004C23.7004 80.2998 22.9004 79.5998 22.9004 78.5998C22.9004 77.5998 23.6004 76.8998 24.6004 76.8998H52.4004C53.3004 76.8998 54.1004 77.5998 54.1004 78.5998C54.1004 79.5998 53.3004 80.2998 52.4004 80.2998ZM52.4004 68.7998H24.6004C23.7004 68.7998 22.9004 68.0998 22.9004 67.0998C22.9004 66.0998 23.6004 65.3998 24.6004 65.3998H52.4004C53.3004 65.3998 54.1004 66.0998 54.1004 67.0998C54.1004 68.0998 53.3004 68.7998 52.4004 68.7998ZM52.4004 57.2998H24.6004C23.7004 57.2998 22.9004 56.5998 22.9004 55.5998C22.9004 54.5998 23.6004 53.8998 24.6004 53.8998H52.4004C53.3004 53.8998 54.1004 54.5998 54.1004 55.5998C54.1004 56.5998 53.3004 57.2998 52.4004 57.2998Z" fill="url(#paint3_linear_133_1304)"/>
<path d="M40.6002 36.3004C44.7002 32.2004 45.7002 26.0004 43.1002 20.8004L42.7002 20.0004L47.4002 15.3004C48.1002 14.6004 48.1002 13.6004 47.4002 12.9004C47.1002 12.6004 46.7002 12.4004 46.2002 12.4004C45.7002 12.4004 45.4002 12.6004 45.0002 13.0004L40.6002 17.4004L39.8002 16.7004C37.4002 14.6004 34.3002 13.5004 31.1002 13.5004C27.5002 13.5004 24.1002 14.9004 21.6002 17.4004C16.4002 22.6004 16.4002 31.2004 21.6002 36.4004C24.1002 38.9004 27.5002 40.3004 31.1002 40.3004C34.7002 40.3004 38.0002 38.9004 40.6002 36.3004ZM23.9002 19.7004C25.8002 17.8004 28.3002 16.7004 31.0002 16.7004C33.3002 16.7004 35.4002 17.4004 37.2002 18.8004L38.3002 19.6004L31.4002 26.5004L29.0002 24.2004C28.7002 23.9004 28.3002 23.7004 27.8002 23.7004C27.3002 23.7004 26.9002 23.9004 26.6002 24.2004C26.3002 24.5004 26.1002 24.9004 26.1002 25.4004C26.1002 25.8004 26.3002 26.3004 26.6002 26.6004L30.2002 30.2004C30.5002 30.5004 30.9002 30.7004 31.4002 30.7004C31.9002 30.7004 32.3002 30.5004 32.6002 30.2004L40.4002 22.4004L40.9002 24.5004C41.7002 27.9004 40.7002 31.6004 38.2002 34.0004C36.3002 35.9004 33.8002 37.0004 31.1002 37.0004C28.4002 37.0004 25.9002 36.0004 24.0002 34.0004C20.0002 30.0004 20.0002 23.6004 23.9002 19.7004Z" fill="#042326"/>
<path d="M52.4004 54H24.6004C23.7004 54 22.9004 54.7 22.9004 55.7C22.9004 56.7 23.6004 57.4 24.6004 57.4H52.4004C53.3004 57.4 54.1004 56.7 54.1004 55.7C54.1004 54.7 53.3004 54 52.4004 54Z" fill="#042326"/>
<path d="M52.4004 65.5H24.6004C23.7004 65.5 22.9004 66.2 22.9004 67.2C22.9004 68.2 23.6004 68.9 24.6004 68.9H52.4004C53.3004 68.9 54.1004 68.2 54.1004 67.2C54.1004 66.2 53.3004 65.5 52.4004 65.5Z" fill="#042326"/>
<path d="M52.4004 76.9004H24.6004C23.7004 76.9004 22.9004 77.6004 22.9004 78.6004C22.9004 79.6004 23.6004 80.3004 24.6004 80.3004H52.4004C53.3004 80.3004 54.1004 79.6004 54.1004 78.6004C54.1004 77.6004 53.3004 76.9004 52.4004 76.9004Z" fill="#042326"/>
<path d="M13.2 80.3004C14.1389 80.3004 14.9 79.5393 14.9 78.6004C14.9 77.6615 14.1389 76.9004 13.2 76.9004C12.2611 76.9004 11.5 77.6615 11.5 78.6004C11.5 79.5393 12.2611 80.3004 13.2 80.3004Z" fill="#042326"/>
<path d="M13.2 68.8004C14.1389 68.8004 14.9 68.0393 14.9 67.1004C14.9 66.1615 14.1389 65.4004 13.2 65.4004C12.2611 65.4004 11.5 66.1615 11.5 67.1004C11.5 68.0393 12.2611 68.8004 13.2 68.8004Z" fill="#042326"/>
<path d="M13.2 57.3004C14.1389 57.3004 14.9 56.5393 14.9 55.6004C14.9 54.6615 14.1389 53.9004 13.2 53.9004C12.2611 53.9004 11.5 54.6615 11.5 55.6004C11.5 56.5393 12.2611 57.3004 13.2 57.3004Z" fill="#042326"/>
</g>
<defs>
<linearGradient id="paint0_linear_133_1304" x1="65.5484" y1="25.3091" x2="84.6012" y2="25.3091" gradientUnits="userSpaceOnUse">
<stop stop-color="#04A6C2" stop-opacity="0.01"/>
<stop offset="0.533" stop-color="#04A6C2" stop-opacity="0.68"/>
<stop offset="0.8307" stop-color="#04A6C2" stop-opacity="0.88"/>
<stop offset="1" stop-color="#04A6C2"/>
</linearGradient>
<linearGradient id="paint1_linear_133_1304" x1="20.9974" y1="26.8277" x2="41.1636" y2="26.8277" gradientUnits="userSpaceOnUse">
<stop stop-color="#04A6C2" stop-opacity="0.01"/>
<stop offset="0.533" stop-color="#04A6C2" stop-opacity="0.68"/>
<stop offset="0.8307" stop-color="#04A6C2" stop-opacity="0.88"/>
<stop offset="1" stop-color="#04A6C2"/>
</linearGradient>
<linearGradient id="paint2_linear_133_1304" x1="20.9974" y1="26.8277" x2="41.1636" y2="26.8277" gradientUnits="userSpaceOnUse">
<stop stop-color="#04A6C2" stop-opacity="0.01"/>
<stop offset="0.533" stop-color="#04A6C2" stop-opacity="0.68"/>
<stop offset="0.8307" stop-color="#04A6C2" stop-opacity="0.88"/>
<stop offset="1" stop-color="#04A6C2"/>
</linearGradient>
<linearGradient id="paint3_linear_133_1304" x1="3.34219" y1="47.7996" x2="66.1274" y2="47.7996" gradientUnits="userSpaceOnUse">
<stop stop-color="#04A6C2" stop-opacity="0.01"/>
<stop offset="0.533" stop-color="#04A6C2" stop-opacity="0.68"/>
<stop offset="0.8307" stop-color="#04A6C2" stop-opacity="0.88"/>
<stop offset="1" stop-color="#04A6C2"/>
</linearGradient>
<clipPath id="clip0_133_1304">
<rect width="87.9" height="95.6" fill="white"/>
</clipPath>
</defs>
</svg>
