<svg width="109" height="95" viewBox="0 0 109 95" fill="none" xmlns="http://www.w3.org/2000/svg">
<path d="M100.1 26.0996H80.4998C75.9998 26.0996 72.2998 29.7996 72.2998 34.2996C72.2998 37.7996 74.4998 40.8996 77.7998 41.9996L78.8998 42.3996V83.2996C78.8998 89.5996 83.9998 94.7996 90.3998 94.7996C96.6998 94.7996 101.9 89.6996 101.9 83.2996V42.3996L103 41.9996C106.3 40.7996 108.5 37.6996 108.5 34.2996C108.3 29.7996 104.6 26.0996 100.1 26.0996ZM98.3998 83.2996C98.3998 87.7996 94.7998 91.3996 90.2998 91.3996C85.7998 91.3996 82.1998 87.7996 82.1998 83.2996V62.0996H98.4998V83.2996H98.3998ZM100.1 39.1996C99.1998 39.1996 98.3998 39.8996 98.3998 40.8996V58.7996H82.1998V40.8996C82.1998 39.9996 81.4998 39.1996 80.4998 39.1996C77.7998 39.1996 75.5998 36.9996 75.5998 34.2996C75.5998 31.5996 77.7998 29.3996 80.4998 29.3996H100.1C102.8 29.3996 105 31.5996 105 34.2996C105 36.9996 102.8 39.1996 100.1 39.1996Z" fill="#042326"/>
<path opacity="0.4" d="M82.2002 83.2996C82.2002 87.7996 85.8002 91.3996 90.3002 91.3996C94.8002 91.3996 98.4002 87.7996 98.4002 83.2996V62.0996H82.2002V83.2996Z" fill="url(#paint0_linear_133_1321)"/>
<path opacity="0.2" d="M82.2002 83.2996C82.2002 87.7996 85.8002 91.3996 90.3002 91.3996C94.8002 91.3996 98.4002 87.7996 98.4002 83.2996V62.0996H82.2002V83.2996Z" fill="url(#paint1_linear_133_1321)"/>
<path opacity="0.2" d="M100.1 29.5H80.4996C77.7996 29.5 75.5996 31.7 75.5996 34.4C75.5996 37.1 77.7996 39.3 80.4996 39.3C81.3996 39.3 82.1996 40 82.1996 41V58.9H98.4996V40.9C98.4996 40 99.1996 39.2 100.2 39.2C102.9 39.2 105.1 37 105.1 34.3C105.1 31.6 102.8 29.5 100.1 29.5Z" fill="url(#paint2_linear_133_1321)"/>
<path d="M67.6 77.6L46 40.4V16.3L47.1 15.9C50.4 14.7 52.6 11.6 52.6 8.2C52.6 3.7 48.9 0 44.4 0H24.8C20.3 0 16.6 3.7 16.6 8.2C16.6 11.7 18.8 14.8 22.1 15.9L23.2 16.3V40.4L23 40.7C20.7 44.7 18.2 49.1 15.6 53.6L15.5 53.8C10.2 62.8 4.9 72.1 1.5 77.6C0.5 79.3 0 81.3 0 83.3C0 89.6 5.1 94.8 11.5 94.8H57.7C64 94.8 69.2 89.7 69.2 83.3C69.1 81.3 68.6 79.4 67.6 77.6ZM26.2 41.7C26.3 41.4 26.4 41.2 26.4 40.9V14.7C26.4 13.8 25.7 13 24.7 13C22 13 19.8 10.8 19.8 8.1C19.8 5.4 22 3.2 24.7 3.2H44.3C47 3.2 49.2 5.4 49.2 8.1C49.2 10.8 47 13 44.3 13C43.4 13 42.6 13.7 42.6 14.7V40.8C42.6 41.1 42.7 41.4 42.8 41.6L52.7 58.7H16.4L26.2 41.7ZM57.6 91.5H11.5C7 91.5 3.4 87.9 3.4 83.4C3.4 82 3.8 80.6 4.5 79.4C8 73.8 11.4 67.7 13.1 64.7C13.1 64.7 13.9 63.3 14.1 63L14.6 62.2H54.9L64.8 79.3C65.5 80.5 65.9 81.9 65.9 83.3C65.8 87.8 62.1 91.5 57.6 91.5Z" fill="#042326"/>
<path opacity="0.2" d="M54.7998 62.2002H14.4998L13.9998 62.9002C13.7998 63.2002 12.9998 64.6002 12.9998 64.6002C11.2998 67.6002 7.7998 73.6002 4.3998 79.3002C3.6998 80.5002 3.2998 81.9002 3.2998 83.3002C3.2998 87.8002 6.8998 91.4002 11.3998 91.4002H57.5998C62.0998 91.4002 65.6998 87.8002 65.6998 83.3002C65.6998 81.9002 65.2998 80.5002 64.5998 79.3002L54.7998 62.2002Z" fill="url(#paint3_linear_133_1321)"/>
<path opacity="0.2" d="M42.9 41.6998C42.8 41.3998 42.7 41.1998 42.7 40.8998V14.6998C42.7 13.7998 43.4 12.9998 44.4 12.9998C47.1 12.9998 49.3 10.7998 49.3 8.0998C49.3 5.3998 47 3.2998 44.4 3.2998H24.8C22.1 3.2998 19.9 5.4998 19.9 8.1998C19.9 10.8998 22.1 13.0998 24.8 13.0998C25.7 13.0998 26.5 13.7998 26.5 14.7998V40.8998C26.5 41.1998 26.4 41.4998 26.3 41.6998L16.5 58.7998H52.9L42.9 41.6998Z" fill="url(#paint4_linear_133_1321)"/>
<defs>
<linearGradient id="paint0_linear_133_1321" x1="82.1691" y1="76.7994" x2="98.4357" y2="76.7994" gradientUnits="userSpaceOnUse">
<stop stop-color="#04A6C2" stop-opacity="0.01"/>
<stop offset="0.533" stop-color="#04A6C2" stop-opacity="0.68"/>
<stop offset="0.8307" stop-color="#04A6C2" stop-opacity="0.88"/>
<stop offset="1" stop-color="#04A6C2"/>
</linearGradient>
<linearGradient id="paint1_linear_133_1321" x1="82.1691" y1="76.7994" x2="98.4357" y2="76.7994" gradientUnits="userSpaceOnUse">
<stop stop-color="#04A6C2" stop-opacity="0.01"/>
<stop offset="0.533" stop-color="#04A6C2" stop-opacity="0.68"/>
<stop offset="0.8307" stop-color="#04A6C2" stop-opacity="0.88"/>
<stop offset="1" stop-color="#04A6C2"/>
</linearGradient>
<linearGradient id="paint2_linear_133_1321" x1="75.6353" y1="44.1328" x2="104.968" y2="44.1328" gradientUnits="userSpaceOnUse">
<stop stop-color="#04A6C2" stop-opacity="0.01"/>
<stop offset="0.533" stop-color="#04A6C2" stop-opacity="0.68"/>
<stop offset="0.8307" stop-color="#04A6C2" stop-opacity="0.88"/>
<stop offset="1" stop-color="#04A6C2"/>
</linearGradient>
<linearGradient id="paint3_linear_133_1321" x1="3.3338" y1="76.8" x2="65.7684" y2="76.8" gradientUnits="userSpaceOnUse">
<stop stop-color="#04A6C2" stop-opacity="0.01"/>
<stop offset="0.533" stop-color="#04A6C2" stop-opacity="0.68"/>
<stop offset="0.8307" stop-color="#04A6C2" stop-opacity="0.88"/>
<stop offset="1" stop-color="#04A6C2"/>
</linearGradient>
<linearGradient id="paint4_linear_133_1321" x1="16.3828" y1="31.066" x2="52.8193" y2="31.066" gradientUnits="userSpaceOnUse">
<stop stop-color="#04A6C2" stop-opacity="0.01"/>
<stop offset="0.533" stop-color="#04A6C2" stop-opacity="0.68"/>
<stop offset="0.8307" stop-color="#04A6C2" stop-opacity="0.88"/>
<stop offset="1" stop-color="#04A6C2"/>
</linearGradient>
</defs>
</svg>
