<svg width="106" height="92" viewBox="0 0 106 92" fill="none" xmlns="http://www.w3.org/2000/svg">
<path d="M104.1 0H1.7C0.7 0 0 0.7 0 1.7V71.5C0 72.4 0.7 73.2 1.7 73.2H61.8L62.6 74.6C63.8 76.7 65.6 78.6 67.6 79.9L69.5 81.2L66.6 89.8C66.5 90.2 66.5 90.7 66.7 91.1C66.9 91.5 67.2 91.8 67.7 91.9C67.9 92 68 92 68.2 92C68.9 92 69.5 91.5 69.8 90.9L72.7 82.3L75 82.5C75.4 82.5 75.7 82.5 76.1 82.5C76.5 82.5 76.8 82.5 77.2 82.5L79.5 82.3L82.4 90.9C82.6 91.6 83.3 92 84 92C84.2 92 84.4 92 84.5 91.9C84.9 91.8 85.3 91.5 85.5 91.1C85.7 90.7 85.7 90.3 85.6 89.8L82.7 81.2L84.6 79.9C86.7 78.6 88.4 76.7 89.6 74.6L90.5 73.1H104C104.9 73.1 105.7 72.4 105.7 71.4V1.7C105.7 0.7 105 0 104.1 0ZM76.1 79.1C69.3 79.1 63.8 73.6 63.8 66.8C63.8 60 69.3 54.5 76.1 54.5C82.9 54.5 88.4 60 88.4 66.8C88.4 73.6 82.9 79.1 76.1 79.1ZM102.4 69.8H91.8V66.8C91.8 58.2 84.8 51.2 76.2 51.2C67.6 51.2 60.6 58.2 60.6 66.8V69.8H3.3V3.3H102.4V69.8Z" fill="#042326"/>
<path opacity="0.4" d="M76.1008 54.5C69.3008 54.5 63.8008 60 63.8008 66.8C63.8008 73.6 69.3008 79.1 76.1008 79.1C82.9008 79.1 88.4008 73.6 88.4008 66.8C88.4008 60 82.9008 54.5 76.1008 54.5Z" fill="url(#paint0_linear_133_1331)"/>
<path opacity="0.2" d="M76.1008 54.5C69.3008 54.5 63.8008 60 63.8008 66.8C63.8008 73.6 69.3008 79.1 76.1008 79.1C82.9008 79.1 88.4008 73.6 88.4008 66.8C88.4008 60 82.9008 54.5 76.1008 54.5Z" fill="url(#paint1_linear_133_1331)"/>
<path opacity="0.2" d="M3.30078 69.7998H60.5008V66.7998C60.5008 58.1998 67.5008 51.1998 76.1008 51.1998C84.7008 51.1998 91.7008 58.1998 91.7008 66.7998V69.7998H102.401V3.2998H3.30078V69.7998ZM62.2008 40.5998H52.9008C52.0008 40.5998 51.2008 39.8998 51.2008 38.8998C51.2008 37.9998 51.9008 37.1998 52.9008 37.1998H62.2008C63.1008 37.1998 63.9008 37.8998 63.9008 38.8998C63.8008 39.7998 63.1008 40.5998 62.2008 40.5998ZM34.2008 18.5998H71.4008C72.3008 18.5998 73.1008 19.2998 73.1008 20.2998C73.1008 21.1998 72.4008 21.9998 71.4008 21.9998H34.2008C33.3008 21.9998 32.5008 21.2998 32.5008 20.2998C32.6008 19.3998 33.3008 18.5998 34.2008 18.5998ZM24.9008 37.1998H34.2008C35.1008 37.1998 35.9008 37.8998 35.9008 38.8998C35.9008 39.7998 35.2008 40.5998 34.2008 40.5998H24.9008C24.0008 40.5998 23.2008 39.8998 23.2008 38.8998C23.3008 37.9998 24.0008 37.1998 24.9008 37.1998ZM24.9008 55.8998H43.5008C44.4008 55.8998 45.2008 56.5998 45.2008 57.5998C45.2008 58.5998 44.5008 59.2998 43.5008 59.2998H24.9008C24.0008 59.2998 23.2008 58.5998 23.2008 57.5998C23.2008 56.5998 24.0008 55.8998 24.9008 55.8998Z" fill="url(#paint2_linear_133_1331)"/>
<path d="M34.2 21.9H71.4C72.3 21.9 73.1 21.2 73.1 20.2C73.1 19.3 72.4 18.5 71.4 18.5H34.2C33.3 18.5 32.5 19.2 32.5 20.2C32.6 21.2 33.3 21.9 34.2 21.9Z" fill="black"/>
<path d="M24.8992 40.6002H34.1992C35.0992 40.6002 35.8992 39.9002 35.8992 38.9002C35.8992 38.0002 35.1992 37.2002 34.1992 37.2002H24.8992C23.9992 37.2002 23.1992 37.9002 23.1992 38.9002C23.2992 39.8002 23.9992 40.6002 24.8992 40.6002Z" fill="black"/>
<path d="M62.1992 37.2002H52.8992C51.9992 37.2002 51.1992 37.9002 51.1992 38.9002C51.1992 39.8002 51.8992 40.6002 52.8992 40.6002H62.1992C63.0992 40.6002 63.8992 39.9002 63.8992 38.9002C63.7992 38.0002 63.0992 37.2002 62.1992 37.2002Z" fill="black"/>
<path d="M24.8992 59.1998H43.4992C44.3992 59.1998 45.1992 58.4998 45.1992 57.4998C45.1992 56.4998 44.4992 55.7998 43.4992 55.7998H24.8992C23.9992 55.7998 23.1992 56.4998 23.1992 57.4998C23.1992 58.4998 23.9992 59.1998 24.8992 59.1998Z" fill="black"/>
<defs>
<linearGradient id="paint0_linear_133_1331" x1="63.8289" y1="66.8276" x2="88.449" y2="66.8276" gradientUnits="userSpaceOnUse">
<stop stop-color="#04A6C2" stop-opacity="0.01"/>
<stop offset="0.533" stop-color="#04A6C2" stop-opacity="0.68"/>
<stop offset="0.8307" stop-color="#04A6C2" stop-opacity="0.88"/>
<stop offset="1" stop-color="#04A6C2"/>
</linearGradient>
<linearGradient id="paint1_linear_133_1331" x1="63.8289" y1="66.8276" x2="88.449" y2="66.8276" gradientUnits="userSpaceOnUse">
<stop stop-color="#04A6C2" stop-opacity="0.01"/>
<stop offset="0.533" stop-color="#04A6C2" stop-opacity="0.68"/>
<stop offset="0.8307" stop-color="#04A6C2" stop-opacity="0.88"/>
<stop offset="1" stop-color="#04A6C2"/>
</linearGradient>
<linearGradient id="paint2_linear_133_1331" x1="3.31038" y1="36.5691" x2="102.415" y2="36.5691" gradientUnits="userSpaceOnUse">
<stop stop-color="#04A6C2" stop-opacity="0.01"/>
<stop offset="0.533" stop-color="#04A6C2" stop-opacity="0.68"/>
<stop offset="0.8307" stop-color="#04A6C2" stop-opacity="0.88"/>
<stop offset="1" stop-color="#04A6C2"/>
</linearGradient>
</defs>
</svg>
