<svg width="71" height="94" viewBox="0 0 71 94" fill="none" xmlns="http://www.w3.org/2000/svg">
<g clip-path="url(#clip0_133_1341)">
<path d="M70.6 23.1L48 0.5C47.7 0.2 47.2 0 46.8 0H7.3C3.3 0 0 3.3 0 7.3V86.7C0 90.7 3.3 94 7.3 94H63.8C67.8 94 71.1 90.7 71.1 86.7V24.2C71 23.8 70.9 23.4 70.6 23.1ZM48.5 5.6L65.5 22.6H52.5C50.3 22.6 48.5 20.8 48.5 18.6V5.6ZM67.8 86.7C67.8 88.9 66 90.7 63.8 90.7H7.3C5.1 90.7 3.3 88.9 3.3 86.7V7.3C3.3 5.1 5.1 3.3 7.3 3.3H45.2V18.6C45.2 22.6 48.5 25.9 52.5 25.9H67.8V86.7Z" fill="#042326"/>
<path opacity="0.2" d="M45.2008 18.5998V3.2998H7.30078C5.10078 3.2998 3.30078 5.0998 3.30078 7.2998V86.6998C3.30078 88.8998 5.10078 90.6998 7.30078 90.6998H63.8008C66.0008 90.6998 67.8008 88.8998 67.8008 86.6998V25.8998H52.5008C48.4008 25.8998 45.2008 22.5998 45.2008 18.5998ZM41.2008 77.0998H18.6008C17.7008 77.0998 17.0008 76.3998 17.0008 75.4998C17.0008 74.5998 17.7008 73.8998 18.6008 73.8998H41.2008C42.1008 73.8998 42.8008 74.5998 42.8008 75.4998C42.8008 76.2998 42.1008 77.0998 41.2008 77.0998ZM52.5008 65.7998H18.6008C17.7008 65.7998 17.0008 65.0998 17.0008 64.1998C17.0008 63.2998 17.7008 62.5998 18.6008 62.5998H52.5008C53.4008 62.5998 54.1008 63.2998 54.1008 64.1998C54.1008 64.9998 53.4008 65.7998 52.5008 65.7998ZM52.5008 54.4998H18.6008C17.7008 54.4998 17.0008 53.7998 17.0008 52.8998C17.0008 51.9998 17.7008 51.2998 18.6008 51.2998H52.5008C53.4008 51.2998 54.1008 51.9998 54.1008 52.8998C54.1008 53.7998 53.4008 54.4998 52.5008 54.4998ZM54.1008 41.4998C54.1008 42.3998 53.4008 43.0998 52.5008 43.0998H18.6008C17.7008 43.0998 17.0008 42.3998 17.0008 41.4998C17.0008 40.5998 17.7008 39.8998 18.6008 39.8998H52.5008C53.4008 39.8998 54.1008 40.5998 54.1008 41.4998Z" fill="url(#paint0_linear_133_1341)"/>
<path opacity="0.4" d="M52.5 22.5996H65.5L48.5 5.59961V18.5996C48.5 20.7996 50.2 22.5996 52.5 22.5996Z" fill="url(#paint1_linear_133_1341)"/>
<path opacity="0.2" d="M52.5 22.5996H65.5L48.5 5.59961V18.5996C48.5 20.7996 50.2 22.5996 52.5 22.5996Z" fill="url(#paint2_linear_133_1341)"/>
<path d="M18.6 39.9004C17.7 39.9004 17 40.6004 17 41.5004C17 42.4004 17.7 43.1004 18.6 43.1004H52.5C53.4 43.1004 54.1 42.4004 54.1 41.5004C54.1 40.6004 53.4 39.9004 52.5 39.9004H18.6Z" fill="#042326"/>
<path d="M52.5 51.2002H18.6C17.7 51.2002 17 51.9002 17 52.8002C17 53.7002 17.7 54.4002 18.6 54.4002H52.5C53.4 54.4002 54.1 53.7002 54.1 52.8002C54.1 51.9002 53.4 51.2002 52.5 51.2002Z" fill="#042326"/>
<path d="M52.5 62.5H18.6C17.7 62.5 17 63.2 17 64.1C17 65 17.7 65.7 18.6 65.7H52.5C53.4 65.7 54.1 65 54.1 64.1C54.1 63.2 53.4 62.5 52.5 62.5Z" fill="#042326"/>
<path d="M41.2 73.7998H18.6C17.7 73.7998 17 74.4998 17 75.3998C17 76.2998 17.7 76.9998 18.6 76.9998H41.2C42.1 76.9998 42.8 76.2998 42.8 75.3998C42.8 74.4998 42.1 73.7998 41.2 73.7998Z" fill="#042326"/>
</g>
<defs>
<linearGradient id="paint0_linear_133_1341" x1="3.27898" y1="46.9993" x2="67.7602" y2="46.9993" gradientUnits="userSpaceOnUse">
<stop stop-color="#04A6C2" stop-opacity="0.01"/>
<stop offset="0.533" stop-color="#04A6C2" stop-opacity="0.68"/>
<stop offset="0.8307" stop-color="#04A6C2" stop-opacity="0.88"/>
<stop offset="1" stop-color="#04A6C2"/>
</linearGradient>
<linearGradient id="paint1_linear_133_1341" x1="48.4511" y1="14.0904" x2="65.442" y2="14.0904" gradientUnits="userSpaceOnUse">
<stop stop-color="#04A6C2" stop-opacity="0.01"/>
<stop offset="0.533" stop-color="#04A6C2" stop-opacity="0.68"/>
<stop offset="0.8307" stop-color="#04A6C2" stop-opacity="0.88"/>
<stop offset="1" stop-color="#04A6C2"/>
</linearGradient>
<linearGradient id="paint2_linear_133_1341" x1="48.4511" y1="14.0904" x2="65.442" y2="14.0904" gradientUnits="userSpaceOnUse">
<stop stop-color="#04A6C2" stop-opacity="0.01"/>
<stop offset="0.533" stop-color="#04A6C2" stop-opacity="0.68"/>
<stop offset="0.8307" stop-color="#04A6C2" stop-opacity="0.88"/>
<stop offset="1" stop-color="#04A6C2"/>
</linearGradient>
<clipPath id="clip0_133_1341">
<rect width="71" height="94" fill="white"/>
</clipPath>
</defs>
</svg>
