<svg width="52" height="52" viewBox="0 0 52 52" fill="none" xmlns="http://www.w3.org/2000/svg">
<path opacity="0.4" d="M0.800781 1.90039H50.4008L49.7008 9.20039L41.7008 9.60039L42.4008 49.6004L41.1008 50.8004L8.90078 50.3004L9.00078 33.6004L9.60078 19.3004L9.90078 12.2004L8.50078 9.50039H2.20078L0.800781 9.10039V1.90039Z" fill="url(#paint0_linear_158_17)"/>
<path d="M9.4 51.4C8.7 51.4 8.2 50.8 8.2 50.2V10.6H1.2C0.6 10.6 0 10.1 0 9.4V1.2C0 0.6 0.6 0 1.2 0H50.1C50.8 0 51.3 0.6 51.3 1.2V9.4C51.3 10.1 50.7 10.6 50.1 10.6H43.2V50.1C43.2 50.8 42.6 51.3 42 51.3H9.4V51.4ZM39.8 41.5C36.7 42.3 34.2 44.8 33.4 47.9L33.1 48.9H40.8V41.2L39.8 41.5ZM10.6 38.8L11.3 38.9C16.1 39.7 19.8 43.5 20.7 48.2L20.8 48.9H30.7L30.8 48.2C31.6 43.4 35.4 39.7 40.2 38.9L40.9 38.8V10.6H10.6V38.8ZM10.6 48.9H18.3L18 47.9C17.2 44.8 14.7 42.3 11.6 41.5L10.6 41.2V48.9ZM2.5 8.2H48.9V2.5H2.5V8.2ZM25.7 29C23.8 29 22.1 28.5 20.7 27.6C20 27.1 18.4 25.8 18.4 23.7C18.4 21.6 20 20.3 20.7 19.8C22.1 18.9 23.8 18.4 25.7 18.4C27.6 18.4 29.3 18.9 30.7 19.8C31.4 20.3 33 21.6 33 23.7C33 25.8 31.4 27.1 30.7 27.6C29.3 28.5 27.6 29 25.7 29ZM25.7 20.8C24.3 20.8 23 21.2 22.1 21.8C21.3 22.3 20.9 23 20.9 23.7C20.9 24.4 21.3 25 22.1 25.6C23 26.2 24.4 26.6 25.7 26.6C27 26.6 28.4 26.2 29.3 25.6C30.1 25.1 30.5 24.4 30.5 23.7C30.5 23 30.1 22.4 29.3 21.8C28.4 21.2 27.1 20.8 25.7 20.8Z" fill="#042326"/>
<defs>
<linearGradient id="paint0_linear_158_17" x1="0.750781" y1="26.3337" x2="50.4175" y2="26.3337" gradientUnits="userSpaceOnUse">
<stop stop-color="#04A6C2" stop-opacity="0.01"/>
<stop offset="0.533" stop-color="#04A6C2" stop-opacity="0.68"/>
<stop offset="0.8307" stop-color="#04A6C2" stop-opacity="0.88"/>
<stop offset="1" stop-color="#04A6C2"/>
</linearGradient>
</defs>
</svg>
