<svg width="65" height="52" viewBox="0 0 65 52" fill="none" xmlns="http://www.w3.org/2000/svg">
<g opacity="0.4">
<path opacity="0.4" d="M2.60001 14.1996L23.4 4.69961L31.1 2.09961L36 2.89961L43.6 5.79961L60.4 14.1996L58.8 16.6996L50.3 20.7996L50.8 34.1996L50.6 36.9996L49.8 38.9996L46.8 40.6996L40.2 43.1996L32.5 43.5996H29.3H22.2L15.9 41.1996L12.5 38.2996L11.8 33.5996L13.1 27.9996L12.5 23.4996L12.6 20.6996L12.7 19.6996L2.60001 14.1996Z" fill="url(#paint0_linear_158_4)"/>
<path opacity="0.4" d="M2.60001 14.1996L23.4 4.69961L31.1 2.09961L36 2.89961L43.6 5.79961L60.4 14.1996L58.8 16.6996L50.3 20.7996L50.8 34.1996L50.6 36.9996L49.8 38.9996L46.8 40.6996L40.2 43.1996L32.5 43.5996H29.3H22.2L15.9 41.1996L12.5 38.2996L11.8 33.5996L13.1 27.9996L12.5 23.4996L12.6 20.6996L12.7 19.6996L2.60001 14.1996Z" stroke="black" stroke-width="0.2" stroke-miterlimit="10"/>
<path opacity="0.4" d="M2.60001 14.1996L23.4 4.69961L31.1 2.09961L36 2.89961L43.6 5.79961L60.4 14.1996L58.8 16.6996L50.3 20.7996L50.8 34.1996L50.6 36.9996L49.8 38.9996L46.8 40.6996L40.2 43.1996L32.5 43.5996H29.3H22.2L15.9 41.1996L12.5 38.2996L11.8 33.5996L13.1 27.9996L12.5 23.4996L12.6 20.6996L12.7 19.6996L2.60001 14.1996Z" fill="url(#paint1_linear_158_4)"/>
<path opacity="0.4" d="M2.60001 14.1996L23.4 4.69961L31.1 2.09961L36 2.89961L43.6 5.79961L60.4 14.1996L58.8 16.6996L50.3 20.7996L50.8 34.1996L50.6 36.9996L49.8 38.9996L46.8 40.6996L40.2 43.1996L32.5 43.5996H29.3H22.2L15.9 41.1996L12.5 38.2996L11.8 33.5996L13.1 27.9996L12.5 23.4996L12.6 20.6996L12.7 19.6996L2.60001 14.1996Z" fill="url(#paint2_linear_158_4)"/>
<path opacity="0.4" d="M2.60001 14.1996L23.4 4.69961L31.1 2.09961L36 2.89961L43.6 5.79961L60.4 14.1996L58.8 16.6996L50.3 20.7996L50.8 34.1996L50.6 36.9996L49.8 38.9996L46.8 40.6996L40.2 43.1996L32.5 43.5996H29.3H22.2L15.9 41.1996L12.5 38.2996L11.8 33.5996L13.1 27.9996L12.5 23.4996L12.6 20.6996L12.7 19.6996L2.60001 14.1996Z" fill="url(#paint3_linear_158_4)"/>
<path opacity="0.4" d="M2.60001 14.1996L23.4 4.69961L31.1 2.09961L36 2.89961L43.6 5.79961L60.4 14.1996L58.8 16.6996L50.3 20.7996L50.8 34.1996L50.6 36.9996L49.8 38.9996L46.8 40.6996L40.2 43.1996L32.5 43.5996H29.3H22.2L15.9 41.1996L12.5 38.2996L11.8 33.5996L13.1 27.9996L12.5 23.4996L12.6 20.6996L12.7 19.6996L2.60001 14.1996Z" fill="url(#paint4_linear_158_4)"/>
<path opacity="0.4" d="M2.60001 14.1996L23.4 4.69961L31.1 2.09961L36 2.89961L43.6 5.79961L60.4 14.1996L58.8 16.6996L50.3 20.7996L50.8 34.1996L50.6 36.9996L49.8 38.9996L46.8 40.6996L40.2 43.1996L32.5 43.5996H29.3H22.2L15.9 41.1996L12.5 38.2996L11.8 33.5996L13.1 27.9996L12.5 23.4996L12.6 20.6996L12.7 19.6996L2.60001 14.1996Z" fill="url(#paint5_linear_158_4)"/>
</g>
<path d="M60.1 52.0004C59.7 52.0004 59.4 51.9004 59.2 51.6004L59 51.5004C56.9 49.0004 55.8 46.3004 55.8 43.8004C55.8 41.5004 56.7 39.2004 58.6 36.7004L58.8 36.4004V18.0004L52.4 20.9004L52.3 37.5004C52 38.2004 49.4 45.0004 31.6 45.0004C14 45.0004 11.2 38.1004 10.9 37.3004V36.8004V20.8004L3.10001 17.2004C1.60001 16.5004 0.700012 15.6004 0.700012 14.8004C0.700012 13.9004 1.60001 13.1004 3.10001 12.4004L25 2.20039C26.8 1.40039 29.2 0.900391 31.7 0.900391C34.4 0.900391 36.7 1.30039 38.4 2.10039L60.2 12.3004C61.6 12.9004 62.5 13.7004 62.6 14.5004C62.7 15.2004 62.2 15.7004 61.8 16.1004L61.5 16.4004V36.2004L61.7 36.5004C62.7 37.8004 64.4 40.5004 64.4 43.6004C64.4 47.9004 61.2 51.4004 61.1 51.4004C60.8 51.8004 60.4 52.0004 60.1 52.0004ZM59.2 40.6004C58.7 41.6004 58.4 42.7004 58.4 43.7004C58.4 44.8004 58.8 45.9004 59.2 46.8004L60.1 49.0004L61 46.8004C61.3 46.1004 61.7 45.0004 61.7 43.8004C61.7 42.6004 61.3 41.5004 61 40.6004L60.2 38.6004L59.2 40.6004ZM13.5 36.8004L13.6 37.0004C14.4 38.3004 18 42.4004 31.6 42.4004C45.3 42.4004 48.9 38.3004 49.6 37.0004L49.7 36.8004V22.1004L38.2 27.4004C36.4 28.2004 34 28.7004 31.5 28.7004C28.8 28.7004 26.5 28.3004 24.8 27.5004L13.3 22.2004V36.8004H13.5ZM31.7 3.60039C29.6 3.60039 27.5 4.00039 26.1 4.60039L4.00001 14.9004L26 25.2004C27.4 25.8004 29.5 26.2004 31.6 26.2004C33.8 26.2004 35.8 25.8004 37.2 25.2004L59.1 14.9004L37.3 4.60039C35.9 4.00039 33.8 3.60039 31.7 3.60039Z" fill="#042326"/>
<defs>
<linearGradient id="paint0_linear_158_4" x1="2.58741" y1="22.8902" x2="60.4208" y2="22.8902" gradientUnits="userSpaceOnUse">
<stop stop-color="#04A6C2" stop-opacity="0.01"/>
<stop offset="0.533" stop-color="#04A6C2" stop-opacity="0.68"/>
<stop offset="0.8307" stop-color="#04A6C2" stop-opacity="0.88"/>
<stop offset="1" stop-color="#04A6C2"/>
</linearGradient>
<linearGradient id="paint1_linear_158_4" x1="2.58741" y1="22.8902" x2="60.4208" y2="22.8902" gradientUnits="userSpaceOnUse">
<stop stop-color="#04A6C2" stop-opacity="0.01"/>
<stop offset="0.533" stop-color="#04A6C2" stop-opacity="0.68"/>
<stop offset="0.8307" stop-color="#04A6C2" stop-opacity="0.88"/>
<stop offset="1" stop-color="#04A6C2"/>
</linearGradient>
<linearGradient id="paint2_linear_158_4" x1="2.58741" y1="22.8902" x2="60.4208" y2="22.8902" gradientUnits="userSpaceOnUse">
<stop stop-color="#04A6C2" stop-opacity="0.01"/>
<stop offset="0.533" stop-color="#04A6C2" stop-opacity="0.68"/>
<stop offset="0.8307" stop-color="#04A6C2" stop-opacity="0.88"/>
<stop offset="1" stop-color="#04A6C2"/>
</linearGradient>
<linearGradient id="paint3_linear_158_4" x1="2.58741" y1="22.8902" x2="60.4208" y2="22.8902" gradientUnits="userSpaceOnUse">
<stop stop-color="#04A6C2" stop-opacity="0.01"/>
<stop offset="0.533" stop-color="#04A6C2" stop-opacity="0.68"/>
<stop offset="0.8307" stop-color="#04A6C2" stop-opacity="0.88"/>
<stop offset="1" stop-color="#04A6C2"/>
</linearGradient>
<linearGradient id="paint4_linear_158_4" x1="2.58741" y1="22.8902" x2="60.4208" y2="22.8902" gradientUnits="userSpaceOnUse">
<stop stop-color="#04A6C2" stop-opacity="0.01"/>
<stop offset="0.533" stop-color="#04A6C2" stop-opacity="0.68"/>
<stop offset="0.8307" stop-color="#04A6C2" stop-opacity="0.88"/>
<stop offset="1" stop-color="#04A6C2"/>
</linearGradient>
<linearGradient id="paint5_linear_158_4" x1="25.5004" y1="22.999" x2="75.5004" y2="22.999" gradientUnits="userSpaceOnUse">
<stop offset="0.332739" stop-color="#04A6C2" stop-opacity="0.01"/>
<stop offset="0.533" stop-color="#04A6C2" stop-opacity="0.68"/>
<stop offset="0.8307" stop-color="#04A6C2" stop-opacity="0.88"/>
<stop offset="1" stop-color="#04A6C2"/>
</linearGradient>
</defs>
</svg>
