<svg width="52" height="53" viewBox="0 0 52 53" fill="none" xmlns="http://www.w3.org/2000/svg">
<path opacity="0.4" d="M49.9 7H0.700012V50.7H49.9V7Z" fill="url(#paint0_linear_156_2703)" stroke="black" stroke-width="0.2" stroke-miterlimit="10"/>
<path d="M22.3 42.9008C22.6 43.2008 22.9 43.3008 23.2 43.3008H23.3C23.7 43.3008 24 43.1008 24.3 42.8008L35.3 29.5008C35.8 28.9008 35.7 28.1008 35.1 27.6008C34.9 27.4008 34.6 27.3008 34.2 27.3008C33.8 27.3008 33.4 27.5008 33.2 27.8008L23.2 40.0008L17.6 34.4008C17.3 34.1008 17 34.0008 16.6 34.0008C16.2 34.0008 15.9 34.1008 15.6 34.4008C15.1 34.9008 15.1 35.8008 15.6 36.3008L22.3 42.9008Z" fill="#042326"/>
<path d="M47.6 5.30039H40.1V2.20039C40.1 1.50039 39.5 0.900391 38.8 0.900391C38.1 0.900391 37.5 1.50039 37.5 2.20039V5.30039H13.6V2.20039C13.6 1.50039 13 0.900391 12.3 0.900391C11.6 0.900391 11 1.50039 11 2.20039V5.30039H3.5C1.6 5.30039 0 6.90039 0 8.80039V48.6004C0 50.5004 1.6 52.1004 3.5 52.1004H47.7C49.6 52.1004 51.2 50.5004 51.2 48.6004V8.80039C51.1 6.90039 49.6 5.30039 47.6 5.30039ZM48.4 21.2004V49.4004H2.5V21.2004H48.4ZM12.2 12.4004C12.9 12.4004 13.5 11.8004 13.5 11.1004V8.00039H37.3V11.0004C37.3 11.7004 37.9 12.3004 38.6 12.3004C39.3 12.3004 39.9 11.7004 39.9 11.0004V8.00039H48.2V18.6004H2.5V8.00039H10.9V11.0004C10.9 11.8004 11.5 12.4004 12.2 12.4004Z" fill="#042326"/>
<defs>
<linearGradient id="paint0_linear_156_2703" x1="0.666112" y1="28.8119" x2="49.8328" y2="28.8119" gradientUnits="userSpaceOnUse">
<stop stop-color="#04A6C2" stop-opacity="0.01"/>
<stop offset="0.533" stop-color="#04A6C2" stop-opacity="0.68"/>
<stop offset="0.8307" stop-color="#04A6C2" stop-opacity="0.88"/>
<stop offset="1" stop-color="#04A6C2"/>
</linearGradient>
</defs>
</svg>
